<?xml version="1.0" encoding="utf-8"?>
<!-- Generator: Adobe Illustrator 21.1.0, SVG Export Plug-In . SVG Version: 6.00 Build 0)  -->
<svg version="1.1" id="Layer_1" xmlns="http://www.w3.org/2000/svg" xmlns:xlink="http://www.w3.org/1999/xlink" x="0px" y="0px"
	 viewBox="0 0 73 73" style="enable-background:new 0 0 73 73;" xml:space="preserve">
<style type="text/css">
	.st0{filter:url(#Adobe_OpacityMaskFilter);}
	.st1{clip-path:url(#SVGID_2_);mask:url(#SVGID_3_);}
	.st2{clip-path:url(#SVGID_5_);fill:#FFFFFF;}
	.st3{clip-path:url(#SVGID_5_);}
	.st4{clip-path:url(#SVGID_7_);fill:url(#SVGID_8_);}
</style>
<g>
	<defs>
		<path id="SVGID_1_" d="M62.9,0.3l-25.8,73H0v-73h10.1l22.5,69.6l16.8-48.3L43.8,0.3H62.9z M73,73.3V41.8L60.6,73.3H73z"/>
	</defs>
	<clipPath id="SVGID_2_">
		<use xlink:href="#SVGID_1_"  style="overflow:visible;"/>
	</clipPath>
	<defs>
		<filter id="Adobe_OpacityMaskFilter" filterUnits="userSpaceOnUse" x="-1390.5" y="-851.1" width="2853.7" height="2741.1">
			<feFlood  style="flood-color:white;flood-opacity:1" result="back"/>
			<feBlend  in="SourceGraphic" in2="back" mode="normal"/>
		</filter>
	</defs>
	<mask maskUnits="userSpaceOnUse" x="-1390.5" y="-851.1" width="2853.7" height="2741.1" id="SVGID_3_">
		<g class="st0">
		</g>
	</mask>
	<g class="st1">
		<g>
			<defs>
				<rect id="SVGID_4_" x="-924" y="-21" width="1920" height="1080"/>
			</defs>
			<clipPath id="SVGID_5_">
				<use xlink:href="#SVGID_4_"  style="overflow:visible;"/>
			</clipPath>
			<rect x="-923.5" y="-20.5" class="st2" width="1919" height="1079"/>
			<path class="st3" d="M-923-20H995v1078H-923V-20z M-924,1059H996V-21H-924V1059z"/>
			<g class="st3">
				<defs>
					<rect id="SVGID_6_" x="-923.3" y="-20" width="1919.3" height="1079"/>
				</defs>
				<clipPath id="SVGID_7_">
					<use xlink:href="#SVGID_6_"  style="overflow:visible;"/>
				</clipPath>
				
					<linearGradient id="SVGID_8_" gradientUnits="userSpaceOnUse" x1="-924.5066" y1="-20.7149" x2="-923.5073" y2="-20.7149" gradientTransform="matrix(-947.6537 1641.3844 1641.3844 947.6537 -841601.0625 1536800.625)">
					<stop  offset="0" style="stop-color:#3DD8E3"/>
					<stop  offset="1" style="stop-color:#1DC2B8"/>
					<stop  offset="1" style="stop-color:#57DED5"/>
				</linearGradient>
				<polygon class="st4" points="1463.2,249.8 516.2,1890.1 -1390.5,789.3 -443.4,-851.1 				"/>
			</g>
		</g>
	</g>
</g>
<g>
</g>
<g>
</g>
<g>
</g>
<g>
</g>
<g>
</g>
<g>
</g>
<g>
</g>
<g>
</g>
<g>
</g>
<g>
</g>
<g>
</g>
<g>
</g>
<g>
</g>
<g>
</g>
<g>
</g>
</svg>
