<svg xmlns="http://www.w3.org/2000/svg" viewBox="0 0 55 55"><title>pin</title><g id="Layer_2" data-name="Layer 2"><g id="Layer_1-2" data-name="Layer 1"><path d="M54.46,20.35,34.65.54a1.83,1.83,0,0,0-2.59,0C30.53,2.07,29.2,7,28.77,8.75h0l-8,8a7.06,7.06,0,0,0-7.24,11.68L18.8,33.6.54,51.87a1.83,1.83,0,0,0,2.59,2.59L21.4,36.2l5.22,5.22A7.06,7.06,0,0,0,38.3,34.18l8-8c1.72-.43,6.68-1.76,8.21-3.29A1.83,1.83,0,0,0,54.46,20.35Zm-9.53,2.43a1.83,1.83,0,0,0-1,.57l-.27.29-8.85,8.85a1.83,1.83,0,0,0-.28,2.23,3.39,3.39,0,0,1-5.32,4.12L22.7,32.31h0l-6.52-6.52a3.39,3.39,0,0,1,4.12-5.32,1.83,1.83,0,0,0,2.23-.28l8.84-8.84.28-.27a1.83,1.83,0,0,0,.58-1,38.3,38.3,0,0,1,1.58-5.2L50.13,21.2A38,38,0,0,1,44.93,22.77Z"/></g></g></svg>